<svg xmlns="http://www.w3.org/2000/svg" viewBox="0 0 385 385">
  <g fill="none" fill-rule="evenodd">
    <rect fill="#000" width="385" height="385" rx="117"/>
    <path d="M314.272097 211.918344c-10.167533 2.53939-20.335066 3.809086-30.5026 3.809086-63.547082 0-114.384748-50.78781-114.384748-114.272571 0-10.157562 1.270941-20.315123 3.812825-30.472685 1.270941-3.809086 0-8.887867-3.812825-12.696953-3.812825-3.809085-7.62565-5.07878-12.709417-3.809085C96.941075 72.251869 55 128.118459 55 190.333525 55 267.784934 117.276141 330 194.803582 330c62.276141 0 118.197573-41.899942 134.719815-102.845313 1.270942-3.809086 0-8.887867-3.812825-12.696953-2.541883-2.53939-7.62565-3.809085-11.438475-2.53939Z" fill="#FF0" fill-rule="nonzero"/>
  </g>
</svg>
